HIERARCHY
ROOT Hips
{
    OFFSET 0.000000 0.000000 0.000000
    CHANNELS 6 Xposition Yposition Zposition Zrotation Xrotation Yrotation
    JOINT Chest
    {
        OFFSET -0.000000 0.071157 0.000000
        CHANNELS 3 Zrotation Xrotation Yrotation
        JOINT Chest2
        {
            OFFSET -0.000000 0.200496 0.000000
            CHANNELS 3 Zrotation Xrotation Yrotation
            JOINT Neck
            {
                OFFSET -0.000000 0.217851 0.000000
                CHANNELS 3 Zrotation Xrotation Yrotation
                JOINT Head
                {
                    OFFSET -0.000000 0.094152 0.017355
                    CHANNELS 3 Zrotation Xrotation Yrotation
                    End Site
                    {
                        OFFSET -0.000000 0.173553 0.000000
                    }
                }
            }
            JOINT LeftCollar
            {
                OFFSET 0.034349 0.184703 -0.001098
                CHANNELS 3 Zrotation Xrotation Yrotation
                JOINT LeftShoulder
                {
                    OFFSET 0.100089 0.000000 0.000000
                    CHANNELS 3 Zrotation Xrotation Yrotation
                    JOINT LeftElbow
                    {
                        OFFSET 0.265196 0.000000 0.000000
                        CHANNELS 3 Zrotation Xrotation Yrotation
                        JOINT LeftWrist
                        {
                            OFFSET 0.220131 0.000000 0.000000
                            CHANNELS 3 Zrotation Xrotation Yrotation
                            End Site
                            {
                                OFFSET 0.000000 -0.130165 0.000000
                            }
                        }
                    }
                }
            }
            JOINT RightCollar
            {
                OFFSET -0.035053 0.184703 -0.001098
                CHANNELS 3 Zrotation Xrotation Yrotation
                JOINT RightShoulder
                {
                    OFFSET -0.100089 0.000000 0.000000
                    CHANNELS 3 Zrotation Xrotation Yrotation
                    JOINT RightElbow
                    {
                        OFFSET -0.265196 0.000000 0.000000
                        CHANNELS 3 Zrotation Xrotation Yrotation
                        JOINT RightWrist
                        {
                            OFFSET -0.220131 0.000000 0.000000
                            CHANNELS 3 Zrotation Xrotation Yrotation
                            End Site
                            {
                                OFFSET -0.000000 -0.130165 0.000000
                            }
                        }
                    }
                }
            }
        }
    }
    JOINT LeftHip
    {
        OFFSET 0.086776 0.000000 0.000000
        CHANNELS 3 Zrotation Xrotation Yrotation
        JOINT LeftKnee
        {
            OFFSET -0.000000 -0.397777 0.000000
            CHANNELS 3 Zrotation Xrotation Yrotation
            JOINT LeftAnkle
            {
                OFFSET -0.000000 -0.331973 0.000000
                CHANNELS 3 Zrotation Xrotation Yrotation
                JOINT LeftToe
                {
                    OFFSET -0.000000 -0.056405 0.130165
                    CHANNELS 3 Zrotation Xrotation Yrotation
                    End Site
                    {
                        OFFSET -0.000000 0.000000 0.034711
                    }
                }
            }
        }
    }
    JOINT RightHip
    {
        OFFSET -0.086776 0.000000 0.000000
        CHANNELS 3 Zrotation Xrotation Yrotation
        JOINT RightKnee
        {
            OFFSET -0.000000 -0.397777 0.000000
            CHANNELS 3 Zrotation Xrotation Yrotation
            JOINT RightAnkle
            {
                OFFSET -0.000000 -0.331973 0.000000
                CHANNELS 3 Zrotation Xrotation Yrotation
                JOINT RightToe
                {
                    OFFSET -0.000000 -0.056405 0.130165
                    CHANNELS 3 Zrotation Xrotation Yrotation
                    End Site
                    {
                        OFFSET -0.000000 0.000000 0.034711
                    }
                }
            }
        }
    }
}
MOTION
Frames:    13
Frame Time:    0.016667
0.303245    0.815407    1.199641    0.556957    -0.836278    -147.088303    2.156780    -5.003254    2.301204    -1.171956    0.726065    0.744654    -5.159194    17.287432    -3.648762    3.635030    0.469554    -5.722221    12.611624    2.049732    4.001735    -17.999651    2.970248    7.115892    -0.532539    -7.602424    2.298985    83.860817    2.321986    7.716369    -15.131211    -1.415075    3.196624    21.681629    0.133139    6.782152    -2.501935    -0.878454    0.327601    -93.108208    6.556570    -0.693194    2.947764    -0.601598    -1.601715    -5.082798    10.793549    -5.756904    3.039082    -10.360641    9.823765    0.000000    0.000000    0.000000    0.940929    -2.880622    -1.663191    -0.005583    10.244826    -1.358756    0.088363    -7.305319    -5.660037    0.000000    0.000000    0.000000    
0.303201    0.815386    1.199593    0.552235    -0.840648    -147.058853    2.134945    -5.015357    2.282699    -1.152771    0.711560    0.738427    -5.215119    17.291710    -3.828587    3.910610    0.255672    -5.953446    12.587702    2.108188    3.942989    -18.191784    3.538670    7.147029    -0.369567    -7.981485    2.172595    83.708443    2.342251    8.103299    -15.147622    -1.375002    3.187634    21.708368    0.057757    6.825348    -2.521277    -0.857725    0.351607    -93.102974    6.563610    -0.672001    2.941231    -0.603155    -1.582685    -5.072037    10.802492    -5.780352    3.007505    -10.353770    9.797633    0.000000    0.000000    0.000000    0.928309    -2.874688    -1.638950    0.014672    10.247873    -1.414948    0.069361    -7.317741    -5.653918    0.000000    0.000000    0.000000    
0.303184    0.815412    1.199495    0.560884    -0.840997    -147.031693    2.116394    -5.031352    2.252375    -1.130498    0.694040    0.728281    -5.205706    17.143684    -4.018533    3.957795    0.377901    -6.150424    12.562371    2.135276    3.924925    -18.191542    3.466556    7.097610    -0.367097    -7.990165    2.156242    83.839142    2.385396    8.111712    -15.059671    -1.265041    3.191426    21.598780    -0.029000    6.892760    -2.497557    -0.859554    0.396611    -93.223885    6.599651    -0.665060    2.956244    -0.608384    -1.575901    -5.080701    10.809432    -5.810698    3.042460    -10.366556    9.794004    0.000000    0.000000    0.000000    0.939384    -2.862279    -1.640172    0.015957    10.228298    -1.428936    0.089678    -7.319765    -5.669421    0.000000    0.000000    0.000000    
0.303132    0.815446    1.199379    0.557854    -0.839137    -147.023590    2.099068    -5.045968    2.229561    -1.127187    0.680854    0.720773    -5.152066    17.126904    -4.260090    4.001543    0.253657    -6.385308    12.557115    2.142375    3.918152    -18.186356    3.403853    7.037555    -0.371407    -8.001356    2.149272    83.761230    2.459152    8.128495    -15.009788    -1.250492    3.188833    21.566305    0.010934    6.960770    -2.511531    -0.902651    0.405516    -93.258301    6.621865    -0.705249    2.961124    -0.600179    -1.555927    -5.084997    10.814941    -5.863629    3.058816    -10.368567    9.819063    0.000000    0.000000    0.000000    0.941501    -2.855331    -1.636653    0.009131    10.244823    -1.434429    0.104501    -7.338850    -5.708945    0.000000    0.000000    0.000000    
0.303085    0.815451    1.199312    0.561403    -0.846311    -147.019547    2.067180    -5.081404    2.220754    -1.083262    0.691465    0.718079    -5.179396    17.089548    -4.410267    4.081625    0.190996    -6.554676    12.540071    2.143292    3.854091    -18.188492    3.364995    7.070339    -0.399218    -8.055555    2.113695    83.888695    2.524955    8.183072    -15.008920    -1.263123    3.207088    21.550125    0.071961    6.949471    -2.512219    -0.980323    0.452600    -93.252724    6.627156    -0.782060    2.960815    -0.601064    -1.526387    -5.082306    10.817043    -5.868525    3.043362    -10.354287    9.752494    0.000000    0.000000    0.000000    0.941064    -2.857102    -1.644804    0.009429    10.242739    -1.449652    0.092430    -7.325950    -5.675414    0.000000    0.000000    0.000000    
0.303047    0.815468    1.199311    0.574809    -0.846971    -147.047318    2.059875    -5.101111    2.217607    -1.049523    0.698664    0.716936    -5.154496    17.013868    -4.548493    4.015816    0.144734    -6.676733    12.625628    2.045831    3.855357    -18.303242    3.444499    7.076540    -0.363931    -8.108781    2.134053    83.846420    2.539003    8.238570    -15.026488    -1.278106    3.277337    21.557398    0.102726    6.900081    -2.505778    -1.016148    0.493153    -93.220657    6.638121    -0.818576    2.968202    -0.609861    -1.482248    -5.077477    10.839067    -5.870482    3.096141    -10.376254    9.776197    0.000000    0.000000    0.000000    0.949940    -2.875832    -1.644264    0.011444    10.256794    -1.462915    0.074091    -7.297810    -5.621424    0.000000    0.000000    0.000000    
0.302965    0.815477    1.199250    0.576410    -0.849693    -147.068237    2.061832    -5.123656    2.231440    -1.068231    0.701165    0.721576    -5.124377    16.967840    -4.689497    4.075627    0.147967    -6.819557    12.629052    2.023304    3.807515    -18.253473    3.445895    7.113297    -0.377477    -8.087311    2.118438    83.928230    2.519836    8.214059    -14.981759    -1.231637    3.286778    21.541567    0.052363    6.922453    -2.522700    -0.969019    0.448802    -92.973564    6.590672    -0.787958    2.963138    -0.609172    -1.514045    -5.080872    10.846744    -5.853347    3.081886    -10.381318    9.811508    0.000000    0.000000    0.000000    0.944431    -2.878171    -1.659438    0.009394    10.271054    -1.378393    0.084351    -7.300268    -5.684823    0.000000    0.000000    0.000000    
0.302864    0.815468    1.199160    0.575854    -0.835609    -147.100540    2.066739    -5.121148    2.246451    -1.067143    0.700508    0.726566    -5.142229    16.908052    -4.813462    4.156106    0.129131    -6.959635    12.640239    2.053702    3.829467    -18.217194    3.444160    7.076795    -0.373151    -8.056932    2.133476    83.875618    2.455720    8.181437    -14.990473    -1.232807    3.273775    21.565084    0.021777    6.954627    -2.529142    -0.979046    0.424022    -92.888023    6.548872    -0.804398    2.968249    -0.581964    -1.575367    -5.100522    10.832052    -5.761224    3.115056    -10.397316    9.800233    0.000000    0.000000    0.000000    0.949296    -2.859921    -1.660374    0.005266    10.274167    -1.338262    0.111180    -7.321468    -5.689594    0.000000    0.000000    0.000000    
0.302748    0.815460    1.199087    0.575913    -0.832516    -147.136932    2.074669    -5.139286    2.261178    -1.085492    0.695926    0.731362    -5.104922    16.913996    -4.928494    4.192341    0.004052    -7.068313    12.650191    2.069988    3.822633    -18.117182    3.376988    7.073270    -0.402225    -7.964340    2.171552    83.704605    2.455889    8.091847    -14.972167    -1.193114    3.316180    21.574566    -0.057644    6.950021    -2.500116    -0.962432    0.394945    -92.830490    6.517079    -0.792637    2.963211    -0.559729    -1.590491    -5.099299    10.824910    -5.741679    3.122911    -10.409052    9.826920    0.000000    0.000000    0.000000    0.933656    -2.839668    -1.660559    0.034292    10.273710    -1.058167    0.052649    -7.359989    -5.949579    0.000000    0.000000    0.000000    
0.302623    0.815438    1.199018    0.568163    -0.818067    -147.178787    2.077143    -5.135805    2.276489    -1.072953    0.695939    0.736348    -5.114963    16.877039    -4.981414    4.256812    -0.054212    -7.130269    12.623004    2.119497    3.832522    -18.021509    3.379205    7.069078    -0.394788    -7.982595    2.146349    83.911942    2.481571    8.107247    -15.004439    -1.163512    3.326077    21.611679    -0.126877    6.963193    -2.458229    -1.036635    0.463401    -93.190613    6.518915    -0.844947    2.961066    -0.519297    -1.564332    -5.104938    10.811657    -5.738461    3.085749    -10.398406    9.854787    0.000000    0.000000    0.000000    0.933830    -2.829538    -1.686647    0.016394    10.298425    -1.021634    0.027362    -7.357202    -5.906693    0.000000    0.000000    0.000000    
0.302500    0.815446    1.198903    0.573618    -0.815123    -147.231155    2.086479    -5.146351    2.287637    -1.070372    0.685895    0.739742    -5.131750    16.818790    -5.085954    4.280539    -0.077357    -7.242468    12.664854    2.093083    3.871334    -17.815056    2.841108    6.982592    -0.456988    -7.645735    2.393668    83.796005    2.415877    7.767210    -15.046492    -1.223097    3.330239    21.683414    -0.107430    6.962296    -2.526680    -0.993790    0.344259    -92.892868    6.416606    -0.824040    2.969318    -0.485395    -1.561915    -5.121099    10.778043    -5.667872    3.116695    -10.400645    9.781122    0.000000    0.000000    0.000000    0.935939    -2.827647    -1.669632    0.021867    10.304606    -0.983056    0.020873    -7.357517    -5.930113    0.000000    0.000000    0.000000    
0.302409    0.815494    1.198814    0.594891    -0.823989    -147.284180    2.112455    -5.182044    2.301560    -1.071741    0.687220    0.743820    -5.171214    16.758602    -5.125682    4.293694    -0.070438    -7.293778    12.652578    2.104771    3.887024    -17.594973    2.625541    7.031892    -0.684218    -7.574183    2.412822    83.894913    2.381379    7.686897    -15.033591    -1.243568    3.369425    21.652435    -0.061843    6.937708    -2.501336    -0.971881    0.378687    -93.092422    6.510715    -0.787691    2.982473    -0.478707    -1.519844    -5.123870    10.752315    -5.623144    3.114213    -10.416026    9.777693    0.000000    0.000000    0.000000    0.952380    -2.850169    -1.667835    0.009239    10.322435    -0.897333    0.043179    -7.358359    -5.996642    0.000000    0.000000    0.000000    
0.302326    0.815498    1.198714    0.602131    -0.827989    -147.323914    2.118601    -5.219812    2.318002    -1.061398    0.720033    0.749327    -5.153542    16.695562    -5.194799    4.198417    -0.126162    -7.343150    12.684184    2.105561    3.890334    -17.561138    2.610348    7.043763    -0.659395    -7.551506    2.458680    83.955582    2.557085    7.672499    -14.982753    -1.187183    3.386146    21.538395    -0.035074    6.936854    -2.475030    -0.903494    0.367289    -93.036011    6.600781    -0.720412    2.994440    -0.462086    -1.468694    -5.135942    10.738407    -5.628405    3.114190    -10.431391    9.770552    0.000000    0.000000    0.000000    0.962315    -2.858273    -1.642676    -0.005297    10.330660    -0.947302    0.087036    -7.359195    -5.921531    0.000000    0.000000    0.000000    
